<svg width="24" height="24" viewBox="0 0 24 24" fill="none" xmlns="http://www.w3.org/2000/svg">
  <!-- Playing card suits representing bridge -->
  <path d="M12 2C11.2 2 10.5 2.5 10.5 3.5C10.5 4.2 10.8 4.8 11.3 5.2C10.5 5.5 10 6.2 10 7C10 8.1 10.9 9 12 9C13.1 9 14 8.1 14 7C14 6.2 13.5 5.5 12.7 5.2C13.2 4.8 13.5 4.2 13.5 3.5C13.5 2.5 12.8 2 12 2Z" fill="currentColor"/>
  <path d="M6 10C5.2 10 4.5 10.5 4.5 11.5C4.5 12.2 4.8 12.8 5.3 13.2C4.5 13.5 4 14.2 4 15C4 16.1 4.9 17 6 17C7.1 17 8 16.1 8 15C8 14.2 7.5 13.5 6.7 13.2C7.2 12.8 7.5 12.2 7.5 11.5C7.5 10.5 6.8 10 6 10Z" fill="currentColor"/>
  <path d="M18 10C17.2 10 16.5 10.5 16.5 11.5C16.5 12.2 16.8 12.8 17.3 13.2C16.5 13.5 16 14.2 16 15C16 16.1 16.9 17 18 17C19.1 17 20 16.1 20 15C20 14.2 19.5 13.5 18.7 13.2C19.2 12.8 19.5 12.2 19.5 11.5C19.5 10.5 18.8 10 18 10Z" fill="currentColor"/>
  <path d="M12 14C11.2 14 10.5 14.5 10.5 15.5C10.5 16.2 10.8 16.8 11.3 17.2C10.5 17.5 10 18.2 10 19C10 20.1 10.9 21 12 21C13.1 21 14 20.1 14 19C14 18.2 13.5 17.5 12.7 17.2C13.2 16.8 13.5 16.2 13.5 15.5C13.5 14.5 12.8 14 12 14Z" fill="currentColor"/>
</svg>
